<svg width="188" height="260" viewBox="0 0 188 260" fill="none" xmlns="http://www.w3.org/2000/svg">
<rect x="0.5" y="0.5" width="187" height="258.562" rx="9.5" fill="#F9F9FA" stroke="#A7A7A7"/>
<path d="M100.25 120.447H87.125L79.25 113.5L77.5 132.605C77.5 137.816 81 146.5 93.25 146.5C105.5 146.5 109 137.816 109 132.605C109 130.521 107.833 119 107.25 113.5L100.25 120.447Z" stroke="#363636" stroke-width="2" stroke-linejoin="round"/>
<path d="M85 133H73" stroke="#363636" stroke-width="2" stroke-linecap="round" stroke-linejoin="round"/>
<path d="M115 133H103" stroke="#363636" stroke-width="2" stroke-linecap="round" stroke-linejoin="round"/>
<path d="M86.5 140.5H74.5" stroke="#363636" stroke-width="2" stroke-linecap="round" stroke-linejoin="round"/>
<path d="M113.5 140.5H101.5" stroke="#363636" stroke-width="2" stroke-linecap="round" stroke-linejoin="round"/>
<path d="M93.25 133V136C94.25 137 96.7 138.4 98.5 136" stroke="#363636" stroke-width="2" stroke-linecap="round" stroke-linejoin="round"/>
<path d="M93.25 136C92.25 137 89.8 138.4 88 136" stroke="#363636" stroke-width="2" stroke-linecap="round" stroke-linejoin="round"/>
</svg>
