<svg width="136" height="198" viewBox="0 0 136 198" fill="none" xmlns="http://www.w3.org/2000/svg">
<rect x="0.5" y="0.5" width="135" height="197" rx="2.5" fill="#F9F9FA" stroke="#A7A7A7"/>
<path d="M72.1667 92.6316H63.4167L58.1667 88L57 100.737C57 104.211 59.3333 110 67.5 110C75.6667 110 78 104.211 78 100.737C78 99.3474 77.2222 91.6667 76.8333 88L72.1667 92.6316Z" stroke="#363636" stroke-width="2" stroke-linejoin="round"/>
<path d="M62 101H54" stroke="#363636" stroke-width="2" stroke-linecap="round" stroke-linejoin="round"/>
<path d="M82 101H74" stroke="#363636" stroke-width="2" stroke-linecap="round" stroke-linejoin="round"/>
<path d="M63 106H55" stroke="#363636" stroke-width="2" stroke-linecap="round" stroke-linejoin="round"/>
<path d="M81 106H73" stroke="#363636" stroke-width="2" stroke-linecap="round" stroke-linejoin="round"/>
<path d="M67.5 101V103C68.1667 103.667 69.8 104.6 71 103" stroke="#363636" stroke-width="2" stroke-linecap="round" stroke-linejoin="round"/>
<path d="M67.5 103C66.8333 103.667 65.2 104.6 64 103" stroke="#363636" stroke-width="2" stroke-linecap="round" stroke-linejoin="round"/>
</svg>
